<mxfile host="Electron" agent="Mozilla/5.0 (Windows NT 10.0; Win64; x64) AppleWebKit/537.36 (KHTML, like Gecko) draw.io/26.0.16 Chrome/132.0.6834.196 Electron/34.2.0 Safari/537.36" version="26.0.16">
  <diagram name="Page-1" id="GsUBC04XrZ692bu5andm">
    <mxGraphModel dx="2333" dy="1380" grid="1" gridSize="10" guides="1" tooltips="1" connect="1" arrows="1" fold="1" page="1" pageScale="1" pageWidth="850" pageHeight="1100" math="0" shadow="0">
      <root>
        <mxCell id="0" />
        <mxCell id="1" parent="0" />
        <mxCell id="lnkc3gzcCF_LbeKwl1Hm-1" value="" style="rounded=0;whiteSpace=wrap;html=1;dashed=1;fillColor=none;" vertex="1" parent="1">
          <mxGeometry x="50" y="140" width="230" height="530" as="geometry" />
        </mxCell>
        <mxCell id="lnkc3gzcCF_LbeKwl1Hm-2" value="&lt;font style=&quot;font-size: 14px;&quot;&gt;&lt;b&gt;Source&lt;/b&gt;&lt;/font&gt;" style="text;html=1;align=center;verticalAlign=middle;whiteSpace=wrap;rounded=0;" vertex="1" parent="1">
          <mxGeometry x="130" y="110" width="60" height="30" as="geometry" />
        </mxCell>
        <mxCell id="lnkc3gzcCF_LbeKwl1Hm-7" value="" style="group" vertex="1" connectable="0" parent="1">
          <mxGeometry x="119.50999999999999" y="220" width="89.43" height="68" as="geometry" />
        </mxCell>
        <mxCell id="lnkc3gzcCF_LbeKwl1Hm-3" value="" style="image;aspect=fixed;html=1;points=[];align=center;fontSize=12;image=img/lib/azure2/general/Folder_Blank.svg;" vertex="1" parent="lnkc3gzcCF_LbeKwl1Hm-7">
          <mxGeometry width="78.86" height="64" as="geometry" />
        </mxCell>
        <mxCell id="lnkc3gzcCF_LbeKwl1Hm-5" value="" style="verticalLabelPosition=bottom;html=1;verticalAlign=top;align=center;strokeColor=none;fillColor=#00BEF2;shape=mxgraph.azure.file_2;pointerEvents=1;" vertex="1" parent="lnkc3gzcCF_LbeKwl1Hm-7">
          <mxGeometry x="59.43000000000001" y="34" width="30" height="34" as="geometry" />
        </mxCell>
        <mxCell id="lnkc3gzcCF_LbeKwl1Hm-11" value="" style="group" vertex="1" connectable="0" parent="1">
          <mxGeometry x="119.79000000000002" y="420" width="89.43" height="68" as="geometry" />
        </mxCell>
        <mxCell id="lnkc3gzcCF_LbeKwl1Hm-12" value="" style="image;aspect=fixed;html=1;points=[];align=center;fontSize=12;image=img/lib/azure2/general/Folder_Blank.svg;" vertex="1" parent="lnkc3gzcCF_LbeKwl1Hm-11">
          <mxGeometry width="78.86" height="64" as="geometry" />
        </mxCell>
        <mxCell id="lnkc3gzcCF_LbeKwl1Hm-13" value="" style="verticalLabelPosition=bottom;html=1;verticalAlign=top;align=center;strokeColor=none;fillColor=#00BEF2;shape=mxgraph.azure.file_2;pointerEvents=1;" vertex="1" parent="lnkc3gzcCF_LbeKwl1Hm-11">
          <mxGeometry x="59.43000000000001" y="34" width="30" height="34" as="geometry" />
        </mxCell>
        <mxCell id="lnkc3gzcCF_LbeKwl1Hm-14" value="&lt;b&gt;ERP&lt;/b&gt;" style="text;html=1;align=center;verticalAlign=middle;whiteSpace=wrap;rounded=0;" vertex="1" parent="1">
          <mxGeometry x="109.5" y="288" width="110" height="30" as="geometry" />
        </mxCell>
        <mxCell id="lnkc3gzcCF_LbeKwl1Hm-15" value="&lt;b&gt;CRM&lt;/b&gt;" style="text;html=1;align=center;verticalAlign=middle;whiteSpace=wrap;rounded=0;" vertex="1" parent="1">
          <mxGeometry x="109.22000000000003" y="488" width="110" height="30" as="geometry" />
        </mxCell>
        <mxCell id="lnkc3gzcCF_LbeKwl1Hm-16" value="&lt;font style=&quot;font-size: 14px;&quot;&gt;&lt;b&gt;Object Type : &lt;/b&gt;CSV Files&lt;/font&gt;" style="text;html=1;align=center;verticalAlign=middle;whiteSpace=wrap;rounded=0;" vertex="1" parent="1">
          <mxGeometry x="90" y="530" width="160" height="30" as="geometry" />
        </mxCell>
        <mxCell id="lnkc3gzcCF_LbeKwl1Hm-17" value="&lt;font style=&quot;font-size: 14px;&quot;&gt;&lt;b&gt;Interface: &lt;/b&gt;Files in Folder&lt;/font&gt;" style="text;html=1;align=center;verticalAlign=middle;whiteSpace=wrap;rounded=0;" vertex="1" parent="1">
          <mxGeometry x="90" y="570" width="160" height="30" as="geometry" />
        </mxCell>
        <mxCell id="lnkc3gzcCF_LbeKwl1Hm-31" value="" style="group" vertex="1" connectable="0" parent="1">
          <mxGeometry x="360" y="110" width="1060" height="770" as="geometry" />
        </mxCell>
        <mxCell id="lnkc3gzcCF_LbeKwl1Hm-18" value="" style="rounded=0;whiteSpace=wrap;html=1;dashed=1;fillColor=none;" vertex="1" parent="lnkc3gzcCF_LbeKwl1Hm-31">
          <mxGeometry y="41.25" width="1060" height="728.75" as="geometry" />
        </mxCell>
        <mxCell id="lnkc3gzcCF_LbeKwl1Hm-19" value="&lt;font style=&quot;font-size: 14px;&quot;&gt;&lt;b&gt;Data Warehouse&lt;/b&gt;&lt;/font&gt;" style="text;html=1;align=center;verticalAlign=middle;whiteSpace=wrap;rounded=0;" vertex="1" parent="lnkc3gzcCF_LbeKwl1Hm-31">
          <mxGeometry x="430" width="140" height="41.25" as="geometry" />
        </mxCell>
        <mxCell id="lnkc3gzcCF_LbeKwl1Hm-24" value="" style="group;align=left;" vertex="1" connectable="0" parent="lnkc3gzcCF_LbeKwl1Hm-31">
          <mxGeometry x="80" y="110" width="210" height="618.75" as="geometry" />
        </mxCell>
        <mxCell id="lnkc3gzcCF_LbeKwl1Hm-20" value="" style="rounded=0;whiteSpace=wrap;html=1;fillColor=none;" vertex="1" parent="lnkc3gzcCF_LbeKwl1Hm-24">
          <mxGeometry y="46.75" width="210" height="572" as="geometry" />
        </mxCell>
        <mxCell id="lnkc3gzcCF_LbeKwl1Hm-21" value="&lt;b&gt;&lt;font style=&quot;font-size: 14px;&quot;&gt;Bronze Layer&lt;/font&gt;&lt;/b&gt;" style="rounded=0;whiteSpace=wrap;html=1;fillColor=#6d8764;strokeColor=#3A5431;fontColor=#ffffff;" vertex="1" parent="lnkc3gzcCF_LbeKwl1Hm-24">
          <mxGeometry width="210" height="46.75" as="geometry" />
        </mxCell>
        <mxCell id="lnkc3gzcCF_LbeKwl1Hm-34" value="" style="strokeWidth=2;html=1;shape=mxgraph.flowchart.database;whiteSpace=wrap;fillColor=#e1d5e7;strokeColor=#9673a6;" vertex="1" parent="lnkc3gzcCF_LbeKwl1Hm-24">
          <mxGeometry x="65" y="60" width="80" height="97.5" as="geometry" />
        </mxCell>
        <mxCell id="lnkc3gzcCF_LbeKwl1Hm-42" value="&lt;b&gt;&lt;font style=&quot;font-size: 14px;&quot;&gt;Raw Data&lt;/font&gt;&lt;/b&gt;" style="text;html=1;align=center;verticalAlign=middle;whiteSpace=wrap;rounded=0;" vertex="1" parent="lnkc3gzcCF_LbeKwl1Hm-24">
          <mxGeometry x="57.5" y="157.5" width="95" height="41.25" as="geometry" />
        </mxCell>
        <mxCell id="lnkc3gzcCF_LbeKwl1Hm-50" value="&lt;font style=&quot;font-size: 14px;&quot;&gt;&lt;b&gt;Object Type : &lt;/b&gt;Tables&lt;b&gt;&amp;nbsp;&amp;nbsp;&lt;/b&gt;&lt;/font&gt;" style="text;html=1;align=center;verticalAlign=middle;whiteSpace=wrap;rounded=0;" vertex="1" parent="lnkc3gzcCF_LbeKwl1Hm-24">
          <mxGeometry x="27.5" y="210" width="170" height="41.25" as="geometry" />
        </mxCell>
        <mxCell id="lnkc3gzcCF_LbeKwl1Hm-60" value="&lt;h1 style=&quot;margin-top: 0px;&quot;&gt;&lt;span style=&quot;background-color: transparent; color: light-dark(rgb(0, 0, 0), rgb(255, 255, 255));&quot;&gt;&lt;font style=&quot;font-size: 19px;&quot;&gt;Load&lt;/font&gt;&lt;/span&gt;&lt;/h1&gt;&lt;div&gt;&lt;ul&gt;&lt;li&gt;&lt;span style=&quot;background-color: transparent; color: light-dark(rgb(0, 0, 0), rgb(255, 255, 255));&quot;&gt;&lt;font style=&quot;font-size: 14px;&quot;&gt;Batch Processing&lt;/font&gt;&lt;/span&gt;&lt;/li&gt;&lt;li&gt;&lt;span style=&quot;background-color: transparent; color: light-dark(rgb(0, 0, 0), rgb(255, 255, 255));&quot;&gt;&lt;font style=&quot;font-size: 14px;&quot;&gt;Full Load&lt;/font&gt;&lt;/span&gt;&lt;/li&gt;&lt;li&gt;&lt;span style=&quot;background-color: transparent; color: light-dark(rgb(0, 0, 0), rgb(255, 255, 255));&quot;&gt;&lt;font style=&quot;font-size: 14px;&quot;&gt;Truncate &amp;amp; Insert&lt;/font&gt;&amp;nbsp;&amp;nbsp;&lt;/span&gt;&lt;/li&gt;&lt;/ul&gt;&lt;/div&gt;" style="text;html=1;whiteSpace=wrap;overflow=hidden;rounded=0;" vertex="1" parent="lnkc3gzcCF_LbeKwl1Hm-24">
          <mxGeometry x="17.5" y="260" width="180" height="120" as="geometry" />
        </mxCell>
        <mxCell id="lnkc3gzcCF_LbeKwl1Hm-63" value="&lt;font style=&quot;font-size: 15px;&quot;&gt;&lt;b&gt;No Transformations&lt;/b&gt;&lt;/font&gt;" style="text;html=1;align=center;verticalAlign=middle;whiteSpace=wrap;rounded=0;" vertex="1" parent="lnkc3gzcCF_LbeKwl1Hm-24">
          <mxGeometry x="32.5" y="390" width="150" height="30" as="geometry" />
        </mxCell>
        <mxCell id="lnkc3gzcCF_LbeKwl1Hm-64" value="&lt;font style=&quot;font-size: 14px;&quot;&gt;&lt;b&gt;Data Model &lt;/b&gt;&lt;/font&gt;:&amp;nbsp; &lt;font style=&quot;font-size: 14px;&quot;&gt;As it is&lt;/font&gt;" style="text;whiteSpace=wrap;html=1;" vertex="1" parent="lnkc3gzcCF_LbeKwl1Hm-24">
          <mxGeometry x="35" y="430" width="140" height="40" as="geometry" />
        </mxCell>
        <mxCell id="lnkc3gzcCF_LbeKwl1Hm-25" value="" style="group" vertex="1" connectable="0" parent="lnkc3gzcCF_LbeKwl1Hm-31">
          <mxGeometry x="440" y="110" width="215" height="618.75" as="geometry" />
        </mxCell>
        <mxCell id="lnkc3gzcCF_LbeKwl1Hm-26" value="" style="rounded=0;whiteSpace=wrap;html=1;fillColor=none;" vertex="1" parent="lnkc3gzcCF_LbeKwl1Hm-25">
          <mxGeometry y="46.75" width="210" height="572" as="geometry" />
        </mxCell>
        <mxCell id="lnkc3gzcCF_LbeKwl1Hm-27" value="&lt;b&gt;&lt;font style=&quot;font-size: 14px;&quot;&gt;Silver Layer&lt;/font&gt;&lt;/b&gt;" style="rounded=0;whiteSpace=wrap;html=1;fillColor=#bac8d3;strokeColor=#23445d;" vertex="1" parent="lnkc3gzcCF_LbeKwl1Hm-25">
          <mxGeometry width="210" height="46.75" as="geometry" />
        </mxCell>
        <mxCell id="lnkc3gzcCF_LbeKwl1Hm-35" value="" style="strokeWidth=2;html=1;shape=mxgraph.flowchart.database;whiteSpace=wrap;fillColor=#dae8fc;strokeColor=#6c8ebf;" vertex="1" parent="lnkc3gzcCF_LbeKwl1Hm-25">
          <mxGeometry x="65" y="60" width="80" height="97.5" as="geometry" />
        </mxCell>
        <mxCell id="lnkc3gzcCF_LbeKwl1Hm-49" value="&lt;b&gt;&lt;font style=&quot;font-size: 14px;&quot;&gt;Clean, Standardize Data&lt;/font&gt;&lt;/b&gt;" style="text;html=1;align=center;verticalAlign=middle;whiteSpace=wrap;rounded=0;" vertex="1" parent="lnkc3gzcCF_LbeKwl1Hm-25">
          <mxGeometry x="40" y="160" width="160" height="41.25" as="geometry" />
        </mxCell>
        <mxCell id="lnkc3gzcCF_LbeKwl1Hm-57" value="&lt;b&gt;&lt;font style=&quot;font-size: 14px;&quot;&gt;Object Type&lt;/font&gt; &lt;/b&gt;: &lt;font style=&quot;font-size: 14px;&quot;&gt;Table&lt;/font&gt;s" style="text;whiteSpace=wrap;html=1;align=center;" vertex="1" parent="lnkc3gzcCF_LbeKwl1Hm-25">
          <mxGeometry x="50" y="220" width="140" height="55" as="geometry" />
        </mxCell>
        <mxCell id="lnkc3gzcCF_LbeKwl1Hm-61" value="&lt;h1 style=&quot;margin-top: 0px;&quot;&gt;&lt;span style=&quot;background-color: transparent; color: light-dark(rgb(0, 0, 0), rgb(255, 255, 255));&quot;&gt;&lt;font style=&quot;font-size: 19px;&quot;&gt;Load&lt;/font&gt;&lt;/span&gt;&lt;/h1&gt;&lt;div&gt;&lt;ul&gt;&lt;li&gt;&lt;span style=&quot;background-color: transparent; color: light-dark(rgb(0, 0, 0), rgb(255, 255, 255));&quot;&gt;&lt;font style=&quot;font-size: 14px;&quot;&gt;Batch Processing&lt;/font&gt;&lt;/span&gt;&lt;/li&gt;&lt;li&gt;&lt;span style=&quot;background-color: transparent; color: light-dark(rgb(0, 0, 0), rgb(255, 255, 255));&quot;&gt;&lt;font style=&quot;font-size: 14px;&quot;&gt;Full Load&lt;/font&gt;&lt;/span&gt;&lt;/li&gt;&lt;li&gt;&lt;span style=&quot;background-color: transparent; color: light-dark(rgb(0, 0, 0), rgb(255, 255, 255));&quot;&gt;&lt;font style=&quot;font-size: 14px;&quot;&gt;Truncate &amp;amp; Insert&lt;/font&gt;&amp;nbsp;&amp;nbsp;&lt;/span&gt;&lt;/li&gt;&lt;/ul&gt;&lt;/div&gt;" style="text;html=1;whiteSpace=wrap;overflow=hidden;rounded=0;" vertex="1" parent="lnkc3gzcCF_LbeKwl1Hm-25">
          <mxGeometry x="30" y="260" width="180" height="110" as="geometry" />
        </mxCell>
        <mxCell id="lnkc3gzcCF_LbeKwl1Hm-101" value="&lt;ul&gt;&lt;li&gt;&lt;font style=&quot;font-size: 14px;&quot;&gt;Data Enrichment&lt;/font&gt;&lt;/li&gt;&lt;/ul&gt;" style="text;html=1;align=left;verticalAlign=middle;whiteSpace=wrap;rounded=0;" vertex="1" parent="lnkc3gzcCF_LbeKwl1Hm-25">
          <mxGeometry x="25" y="490" width="175" height="30" as="geometry" />
        </mxCell>
        <mxCell id="lnkc3gzcCF_LbeKwl1Hm-103" value="" style="group" vertex="1" connectable="0" parent="lnkc3gzcCF_LbeKwl1Hm-25">
          <mxGeometry x="25" y="380" width="190" height="200" as="geometry" />
        </mxCell>
        <mxCell id="lnkc3gzcCF_LbeKwl1Hm-66" value="&lt;font style=&quot;font-size: 18px;&quot;&gt;&lt;b&gt;Transformations&lt;/b&gt;&lt;/font&gt;" style="text;html=1;align=left;verticalAlign=middle;whiteSpace=wrap;rounded=0;" vertex="1" parent="lnkc3gzcCF_LbeKwl1Hm-103">
          <mxGeometry width="190" height="30" as="geometry" />
        </mxCell>
        <mxCell id="lnkc3gzcCF_LbeKwl1Hm-67" value="&lt;ul&gt;&lt;li&gt;&lt;font style=&quot;font-size: 14px;&quot;&gt;Data Cleansing&lt;/font&gt;&lt;/li&gt;&lt;/ul&gt;" style="text;html=1;align=left;verticalAlign=middle;whiteSpace=wrap;rounded=0;" vertex="1" parent="lnkc3gzcCF_LbeKwl1Hm-103">
          <mxGeometry y="30" width="140" height="30" as="geometry" />
        </mxCell>
        <mxCell id="lnkc3gzcCF_LbeKwl1Hm-98" value="&lt;ul&gt;&lt;li&gt;&lt;font style=&quot;font-size: 14px;&quot;&gt;Data Standardizarion&lt;/font&gt;&lt;/li&gt;&lt;/ul&gt;" style="text;html=1;align=left;verticalAlign=middle;whiteSpace=wrap;rounded=0;" vertex="1" parent="lnkc3gzcCF_LbeKwl1Hm-103">
          <mxGeometry y="50" width="185" height="30" as="geometry" />
        </mxCell>
        <mxCell id="lnkc3gzcCF_LbeKwl1Hm-99" value="&lt;ul&gt;&lt;li&gt;&lt;font style=&quot;font-size: 14px;&quot;&gt;Data Normalization&lt;/font&gt;&lt;/li&gt;&lt;/ul&gt;" style="text;html=1;align=left;verticalAlign=middle;whiteSpace=wrap;rounded=0;" vertex="1" parent="lnkc3gzcCF_LbeKwl1Hm-103">
          <mxGeometry y="70" width="175" height="30" as="geometry" />
        </mxCell>
        <mxCell id="lnkc3gzcCF_LbeKwl1Hm-100" value="&lt;ul&gt;&lt;li&gt;&lt;font style=&quot;font-size: 14px;&quot;&gt;Derived Columns&lt;/font&gt;&lt;/li&gt;&lt;/ul&gt;" style="text;html=1;align=left;verticalAlign=middle;whiteSpace=wrap;rounded=0;" vertex="1" parent="lnkc3gzcCF_LbeKwl1Hm-103">
          <mxGeometry y="90" width="175" height="30" as="geometry" />
        </mxCell>
        <mxCell id="lnkc3gzcCF_LbeKwl1Hm-102" value="&lt;font style=&quot;font-size: 14px;&quot;&gt;&lt;b&gt;Data Model &lt;/b&gt;&lt;/font&gt;:&amp;nbsp; &lt;font style=&quot;font-size: 14px;&quot;&gt;As it is&lt;/font&gt;" style="text;whiteSpace=wrap;html=1;" vertex="1" parent="lnkc3gzcCF_LbeKwl1Hm-103">
          <mxGeometry x="22.5" y="160" width="140" height="40" as="geometry" />
        </mxCell>
        <mxCell id="lnkc3gzcCF_LbeKwl1Hm-28" value="" style="group" vertex="1" connectable="0" parent="lnkc3gzcCF_LbeKwl1Hm-31">
          <mxGeometry x="810" y="96.25" width="210" height="632.5" as="geometry" />
        </mxCell>
        <mxCell id="lnkc3gzcCF_LbeKwl1Hm-29" value="" style="rounded=0;whiteSpace=wrap;html=1;fillColor=none;" vertex="1" parent="lnkc3gzcCF_LbeKwl1Hm-28">
          <mxGeometry y="46.75" width="210" height="585.75" as="geometry" />
        </mxCell>
        <mxCell id="lnkc3gzcCF_LbeKwl1Hm-30" value="&lt;b&gt;&lt;font style=&quot;font-size: 14px;&quot;&gt;Gold Layer&lt;/font&gt;&lt;/b&gt;" style="rounded=0;whiteSpace=wrap;html=1;fillColor=#fff2cc;strokeColor=#d6b656;" vertex="1" parent="lnkc3gzcCF_LbeKwl1Hm-28">
          <mxGeometry width="210" height="46.75" as="geometry" />
        </mxCell>
        <mxCell id="lnkc3gzcCF_LbeKwl1Hm-36" value="" style="strokeWidth=2;html=1;shape=mxgraph.flowchart.database;whiteSpace=wrap;fillColor=#d5e8d4;strokeColor=#82b366;" vertex="1" parent="lnkc3gzcCF_LbeKwl1Hm-28">
          <mxGeometry x="75" y="73.75" width="80" height="106.25" as="geometry" />
        </mxCell>
        <mxCell id="lnkc3gzcCF_LbeKwl1Hm-48" value="&lt;b&gt;&lt;font style=&quot;font-size: 14px;&quot;&gt;Business Ready Data&lt;/font&gt;&lt;/b&gt;" style="text;html=1;align=center;verticalAlign=middle;whiteSpace=wrap;rounded=0;" vertex="1" parent="lnkc3gzcCF_LbeKwl1Hm-28">
          <mxGeometry x="63.75" y="180" width="112.5" height="41.25" as="geometry" />
        </mxCell>
        <mxCell id="lnkc3gzcCF_LbeKwl1Hm-58" value="&lt;b&gt;&lt;font style=&quot;font-size: 14px;&quot;&gt;Object Type&lt;/font&gt; &lt;/b&gt;: &lt;font style=&quot;font-size: 14px;&quot;&gt;Views&lt;/font&gt;" style="text;whiteSpace=wrap;html=1;align=center;" vertex="1" parent="lnkc3gzcCF_LbeKwl1Hm-28">
          <mxGeometry x="50" y="233.75" width="140" height="55" as="geometry" />
        </mxCell>
        <mxCell id="lnkc3gzcCF_LbeKwl1Hm-62" value="&lt;h1 style=&quot;forced-color-adjust: none; color: rgb(0, 0, 0); font-family: Helvetica; font-style: normal; font-variant-ligatures: normal; font-variant-caps: normal; letter-spacing: normal; orphans: 2; text-align: left; text-indent: 0px; text-transform: none; widows: 2; word-spacing: 0px; -webkit-text-stroke-width: 0px; white-space: normal; background-color: rgb(251, 251, 251); text-decoration-thickness: initial; text-decoration-style: initial; text-decoration-color: initial; margin-top: 0px;&quot;&gt;&lt;span style=&quot;forced-color-adjust: none; background-color: transparent; color: light-dark(rgb(0, 0, 0), rgb(255, 255, 255));&quot;&gt;&lt;font style=&quot;forced-color-adjust: none; font-size: 19px;&quot;&gt;Load&lt;/font&gt;&lt;/span&gt;&lt;/h1&gt;&lt;div style=&quot;text-align: center;&quot;&gt;&lt;span style=&quot;forced-color-adjust: none; background-color: transparent; color: light-dark(rgb(0, 0, 0), rgb(255, 255, 255));&quot;&gt;&lt;font style=&quot;forced-color-adjust: none; font-size: 14px;&quot;&gt;&amp;nbsp; &amp;nbsp;No Load&lt;/font&gt;&lt;/span&gt;&lt;/div&gt;" style="text;whiteSpace=wrap;html=1;" vertex="1" parent="lnkc3gzcCF_LbeKwl1Hm-28">
          <mxGeometry x="30" y="273.75" width="150" height="96.25" as="geometry" />
        </mxCell>
        <mxCell id="lnkc3gzcCF_LbeKwl1Hm-104" value="&lt;b&gt;&lt;font style=&quot;font-size: 19px;&quot;&gt;Transformations&lt;/font&gt;&lt;/b&gt;" style="text;whiteSpace=wrap;html=1;" vertex="1" parent="lnkc3gzcCF_LbeKwl1Hm-28">
          <mxGeometry x="30" y="393.75" width="160" height="40" as="geometry" />
        </mxCell>
        <mxCell id="lnkc3gzcCF_LbeKwl1Hm-105" value="&lt;ul&gt;&lt;li&gt;&lt;font style=&quot;font-size: 14px;&quot;&gt;Data Integration&lt;/font&gt;&lt;/li&gt;&lt;/ul&gt;" style="text;html=1;align=left;verticalAlign=middle;whiteSpace=wrap;rounded=0;" vertex="1" parent="lnkc3gzcCF_LbeKwl1Hm-28">
          <mxGeometry x="30" y="433.75" width="160" height="30" as="geometry" />
        </mxCell>
        <mxCell id="lnkc3gzcCF_LbeKwl1Hm-106" value="&lt;ul&gt;&lt;li&gt;&lt;font style=&quot;font-size: 14px;&quot;&gt;Aggregation&lt;/font&gt;&lt;/li&gt;&lt;/ul&gt;" style="text;html=1;align=left;verticalAlign=middle;whiteSpace=wrap;rounded=0;" vertex="1" parent="lnkc3gzcCF_LbeKwl1Hm-28">
          <mxGeometry x="30" y="453.75" width="140" height="30" as="geometry" />
        </mxCell>
        <mxCell id="lnkc3gzcCF_LbeKwl1Hm-146" value="&lt;ul&gt;&lt;li&gt;&lt;font style=&quot;font-size: 14px;&quot;&gt;Business Logic&lt;/font&gt;&lt;/li&gt;&lt;/ul&gt;" style="text;html=1;align=left;verticalAlign=middle;whiteSpace=wrap;rounded=0;" vertex="1" parent="lnkc3gzcCF_LbeKwl1Hm-28">
          <mxGeometry x="30" y="473.75" width="140" height="30" as="geometry" />
        </mxCell>
        <mxCell id="lnkc3gzcCF_LbeKwl1Hm-147" value="&lt;b&gt;&lt;font style=&quot;font-size: 19px;&quot;&gt;Data Model&lt;/font&gt;&lt;/b&gt;" style="text;whiteSpace=wrap;html=1;" vertex="1" parent="lnkc3gzcCF_LbeKwl1Hm-28">
          <mxGeometry x="20" y="503.75" width="160" height="40" as="geometry" />
        </mxCell>
        <mxCell id="lnkc3gzcCF_LbeKwl1Hm-149" value="&lt;ul&gt;&lt;li&gt;&lt;font style=&quot;font-size: 14px;&quot;&gt;Star Schema&lt;/font&gt;&lt;/li&gt;&lt;li&gt;&lt;font style=&quot;font-size: 14px;&quot;&gt;Flat Table&lt;/font&gt;&lt;/li&gt;&lt;li&gt;&lt;font style=&quot;font-size: 14px;&quot;&gt;Aggregate Table&lt;/font&gt;&lt;/li&gt;&lt;/ul&gt;" style="text;whiteSpace=wrap;html=1;" vertex="1" parent="lnkc3gzcCF_LbeKwl1Hm-28">
          <mxGeometry x="42.5" y="530" width="145" height="90" as="geometry" />
        </mxCell>
        <mxCell id="lnkc3gzcCF_LbeKwl1Hm-40" value="" style="shape=flexArrow;endArrow=classic;html=1;rounded=0;width=17.647058823529413;endSize=6.670588235294118;fillColor=#b1ddf0;strokeColor=#10739e;" edge="1" parent="lnkc3gzcCF_LbeKwl1Hm-31">
          <mxGeometry width="50" height="50" relative="1" as="geometry">
            <mxPoint x="300" y="404.965" as="sourcePoint" />
            <mxPoint x="440" y="405.0062499999999" as="targetPoint" />
          </mxGeometry>
        </mxCell>
        <mxCell id="lnkc3gzcCF_LbeKwl1Hm-39" value="" style="shape=flexArrow;endArrow=classic;html=1;rounded=0;width=17.647058823529413;endSize=6.670588235294118;fillColor=#b1ddf0;strokeColor=#10739e;" edge="1" parent="lnkc3gzcCF_LbeKwl1Hm-31">
          <mxGeometry width="50" height="50" relative="1" as="geometry">
            <mxPoint x="660" y="404.96500000000003" as="sourcePoint" />
            <mxPoint x="800" y="405.00625" as="targetPoint" />
          </mxGeometry>
        </mxCell>
        <mxCell id="lnkc3gzcCF_LbeKwl1Hm-32" value="" style="rounded=0;whiteSpace=wrap;html=1;dashed=1;fillColor=none;" vertex="1" parent="1">
          <mxGeometry x="1550" y="140" width="290" height="740" as="geometry" />
        </mxCell>
        <mxCell id="lnkc3gzcCF_LbeKwl1Hm-33" value="&lt;font style=&quot;font-size: 14px;&quot;&gt;&lt;b&gt;Consumer&lt;/b&gt;&lt;/font&gt;" style="text;html=1;align=center;verticalAlign=middle;whiteSpace=wrap;rounded=0;" vertex="1" parent="1">
          <mxGeometry x="1650" y="110" width="60" height="30" as="geometry" />
        </mxCell>
        <mxCell id="lnkc3gzcCF_LbeKwl1Hm-37" value="" style="shape=flexArrow;endArrow=classic;html=1;rounded=0;width=17.647058823529413;endSize=6.670588235294118;fillColor=#b1ddf0;strokeColor=#10739e;" edge="1" parent="1">
          <mxGeometry width="50" height="50" relative="1" as="geometry">
            <mxPoint x="290" y="403.97" as="sourcePoint" />
            <mxPoint x="430" y="404" as="targetPoint" />
          </mxGeometry>
        </mxCell>
        <mxCell id="lnkc3gzcCF_LbeKwl1Hm-41" value="" style="shape=flexArrow;endArrow=classic;html=1;rounded=0;width=17.647058823529413;endSize=6.670588235294118;fillColor=#b1ddf0;strokeColor=#10739e;" edge="1" parent="1">
          <mxGeometry width="50" height="50" relative="1" as="geometry">
            <mxPoint x="1390" y="404.41" as="sourcePoint" />
            <mxPoint x="1530" y="404.44" as="targetPoint" />
          </mxGeometry>
        </mxCell>
        <mxCell id="lnkc3gzcCF_LbeKwl1Hm-150" value="" style="image;aspect=fixed;html=1;points=[];align=center;fontSize=12;image=img/lib/azure2/power_platform/PowerBI.svg;" vertex="1" parent="1">
          <mxGeometry x="1659" y="310" width="51" height="68" as="geometry" />
        </mxCell>
        <mxCell id="lnkc3gzcCF_LbeKwl1Hm-151" value="" style="points=[];aspect=fixed;html=1;align=center;shadow=0;dashed=0;fillColor=#FF6A00;strokeColor=none;shape=mxgraph.alibaba_cloud.machine_learning;" vertex="1" parent="1">
          <mxGeometry x="1660.2" y="660" width="49.8" height="50.099999999999994" as="geometry" />
        </mxCell>
        <mxCell id="lnkc3gzcCF_LbeKwl1Hm-152" value="" style="html=1;verticalLabelPosition=bottom;align=center;labelBackgroundColor=#ffffff;verticalAlign=top;strokeWidth=2;strokeColor=#0080F0;shadow=0;dashed=0;shape=mxgraph.ios7.icons.looking_glass;" vertex="1" parent="1">
          <mxGeometry x="1670" y="518" width="50" height="52" as="geometry" />
        </mxCell>
        <mxCell id="lnkc3gzcCF_LbeKwl1Hm-153" value="&lt;font style=&quot;font-size: 14px;&quot;&gt;&lt;b&gt;BI Reporting&lt;/b&gt;&lt;/font&gt;" style="text;html=1;align=center;verticalAlign=middle;whiteSpace=wrap;rounded=0;" vertex="1" parent="1">
          <mxGeometry x="1637.25" y="390" width="115.5" height="30" as="geometry" />
        </mxCell>
        <mxCell id="lnkc3gzcCF_LbeKwl1Hm-154" value="&lt;font style=&quot;font-size: 14px;&quot;&gt;&lt;b&gt;Machine Learning&lt;/b&gt;&lt;/font&gt;" style="text;html=1;align=center;verticalAlign=middle;whiteSpace=wrap;rounded=0;" vertex="1" parent="1">
          <mxGeometry x="1618.63" y="720" width="152.75" height="30" as="geometry" />
        </mxCell>
        <mxCell id="lnkc3gzcCF_LbeKwl1Hm-155" value="&lt;font style=&quot;font-size: 14px;&quot;&gt;&lt;b&gt;SQL Queries&lt;/b&gt;&lt;/font&gt;" style="text;html=1;align=center;verticalAlign=middle;whiteSpace=wrap;rounded=0;" vertex="1" parent="1">
          <mxGeometry x="1628.63" y="580" width="152.75" height="30" as="geometry" />
        </mxCell>
      </root>
    </mxGraphModel>
  </diagram>
</mxfile>
